<svg width="25" height="25" viewBox="0 0 45 45" fill="none" xmlns="http://www.w3.org/2000/svg">
<path d="M22.3669 1.78571C27.131 1.7837 31.7484 3.44351 35.4323 6.48231C39.1162 9.52112 41.6388 13.7509 42.57 18.4509C43.5013 23.1509 42.7836 28.0304 40.5394 32.2578C38.2952 36.4852 34.6633 39.7991 30.2625 41.6346C25.8617 43.4702 20.9643 43.714 16.4048 42.3244C11.8454 40.9348 7.90599 37.9978 5.2579 34.0139C2.6098 30.03 1.41686 25.2456 1.88234 20.4761C2.34782 15.7066 4.44292 11.2469 7.81066 7.85714C9.71745 5.92734 11.9858 4.39709 14.4843 3.35494C16.9829 2.31279 19.6621 1.77942 22.3669 1.78571ZM22.3669 0C17.9431 0 13.6187 1.3196 9.94051 3.79193C6.2623 6.26427 3.39548 9.77829 1.70258 13.8896C0.00968871 18.001 -0.433246 22.525 0.429784 26.8895C1.29281 31.2541 3.42305 35.2632 6.55111 38.4099C9.67917 41.5566 13.6646 43.6995 18.0033 44.5677C22.3421 45.4358 26.8393 44.9903 30.9263 43.2873C35.0133 41.5843 38.5065 38.7004 40.9642 35.0003C43.4219 31.3002 44.7337 26.9501 44.7337 22.5C44.7337 16.5326 42.3772 10.8097 38.1826 6.5901C33.988 2.37053 28.2989 0 22.3669 0Z" fill="white"/>
<path d="M22.3669 43.4024C33.8374 43.4024 43.1361 34.0441 43.1361 22.5C43.1361 10.956 33.8374 1.59766 22.3669 1.59766C10.8964 1.59766 1.59766 10.956 1.59766 22.5C1.59766 34.0441 10.8964 43.4024 22.3669 43.4024Z" fill="#E7DF33"/>
<path d="M30.2372 22.4852C29.7027 21.7923 28.8961 21.3161 27.8176 21.0566C29.1914 20.3542 29.7949 19.1637 29.6283 17.4852C29.5884 16.9253 29.4158 16.3829 29.1247 15.903C28.8397 15.4556 28.4467 15.0872 27.9819 14.8316C27.4916 14.5541 26.966 14.3445 26.4194 14.2084C25.7834 14.0535 25.1361 13.9496 24.4836 13.8977V10.4102H22.3533V13.803C21.9842 13.803 21.4217 13.8119 20.6658 13.8298V10.4102H18.5354V13.8959C18.2318 13.9048 17.7836 13.9102 17.1943 13.9102L14.2622 13.8959V16.1637H15.7979C16.4979 16.1637 16.908 16.4774 17.0283 17.1048V21.0709C17.1023 21.0699 17.1764 21.0747 17.2497 21.0852H17.0283V26.6441C16.9551 27.1155 16.6872 27.3494 16.2265 27.3494H14.6908L14.2622 29.8816H17.0283C17.2068 29.8816 17.4568 29.8816 17.789 29.8816H18.5354V33.4101H20.6658V29.9405C21.0527 29.95 21.6152 29.9542 22.3533 29.953V33.4262H24.4836V29.8977C25.1581 29.8702 25.8302 29.8011 26.4961 29.6905C27.0716 29.5918 27.6349 29.4319 28.1765 29.2137C28.6672 29.0243 29.1211 28.7505 29.5176 28.4048C29.8948 28.0581 30.1984 27.6391 30.4104 27.1727C30.6577 26.6264 30.8093 26.0417 30.8586 25.4441C30.9801 24.1643 30.7729 23.178 30.2372 22.4852ZM20.714 16.3155H21.2604C21.5604 16.3155 21.8104 16.3066 22.0086 16.3012C22.2069 16.2959 22.4729 16.3012 22.8104 16.3369C23.0957 16.3573 23.3795 16.3942 23.6604 16.4477C23.92 16.5022 24.1745 16.5787 24.4211 16.6762C24.6648 16.7621 24.8901 16.8929 25.0854 17.0619C25.2612 17.2278 25.4042 17.4253 25.5069 17.6441C25.6286 17.8961 25.6897 18.1731 25.6854 18.453C25.6898 18.6969 25.6474 18.9394 25.5604 19.1673C25.483 19.3744 25.3546 19.5586 25.1872 19.703C25.0278 19.8416 24.8569 19.9664 24.6765 20.0762C24.4674 20.1963 24.2409 20.283 24.0051 20.3334C23.7336 20.3977 23.4961 20.4477 23.2908 20.4852C23.0391 20.5268 22.785 20.5519 22.5301 20.5602L21.839 20.5887C21.6818 20.5887 21.4676 20.5887 21.1961 20.5887H20.7176V16.3155H20.714ZM26.5301 25.7352C26.449 25.9371 26.3349 26.1242 26.1926 26.2887C26.0366 26.4583 25.8515 26.5986 25.6461 26.703C25.4345 26.8159 25.2148 26.9132 24.989 26.9941C24.7381 27.0771 24.4815 27.1416 24.2211 27.1869C23.9211 27.2423 23.6586 27.2816 23.4318 27.3048C23.2051 27.328 22.9372 27.3459 22.6229 27.3601C22.3086 27.3744 22.0658 27.3816 21.8908 27.3816C21.7158 27.3816 21.4943 27.3816 21.2265 27.3816H20.714V22.6923L21.3711 22.678C21.7283 22.678 22.0336 22.6637 22.264 22.6637C22.4943 22.6637 22.8122 22.678 23.2176 22.7066C23.5615 22.7257 23.9039 22.7669 24.2426 22.8298C24.55 22.8943 24.8525 22.9802 25.1479 23.0869C25.4353 23.18 25.7043 23.3226 25.9426 23.5084C26.1539 23.6841 26.3281 23.9003 26.4551 24.1441C26.5976 24.4198 26.6688 24.7267 26.6622 25.0369C26.6628 25.2766 26.6154 25.514 26.5229 25.7352H26.5301Z" fill="#0A2352"/>
</svg>
