<svg width="102" height="102" viewBox="0 0 102 102" fill="none" xmlns="http://www.w3.org/2000/svg">
<path d="M87.0624 14.9374C77.4298 5.305 64.6226 0 51 0C37.3774 0 24.5702 5.305 14.9376 14.9374C5.3048 24.5702 0 37.3774 0 51C0 64.6226 5.3048 77.4297 14.9376 87.0626C24.5702 96.695 37.3774 102 51 102C64.6226 102 77.4298 96.695 87.0624 87.0626C96.6952 77.4297 102 64.6226 102 51C102 37.3774 96.6952 24.5702 87.0624 14.9374ZM51 98.0156C25.0755 98.0156 3.98438 76.9245 3.98438 51C3.98438 25.0755 25.0755 3.98438 51 3.98438C76.9245 3.98438 98.0156 25.0755 98.0156 51C98.0156 76.9245 76.9245 98.0156 51 98.0156Z" fill="white"/>
<path d="M28.2355 25.3057C27.4573 24.528 26.1959 24.528 25.4179 25.3057L25.3655 25.3581C24.5854 26.1343 24.5822 27.3957 25.3582 28.1757C25.7475 28.5669 26.2588 28.7628 26.7704 28.7628C27.2786 28.7628 27.7869 28.5695 28.1757 28.183L28.2355 28.1233C29.0134 27.3451 29.0134 26.0837 28.2355 25.3057Z" fill="white"/>
<path d="M76.641 73.8241C75.8649 73.0444 74.6034 73.0418 73.8237 73.8179L73.7575 73.8839C72.9778 74.6602 72.975 75.9217 73.7514 76.7014C74.1404 77.0925 74.6518 77.2879 75.163 77.2879C75.6714 77.2879 76.18 77.0945 76.5687 76.7076L76.6348 76.6417C77.4146 75.8653 77.4174 74.6038 76.641 73.8241Z" fill="white"/>
<path d="M64.1658 20.7077L52.4119 8.90061C51.8427 8.32865 50.9849 8.15672 50.2398 8.46471C49.4943 8.77251 49.0078 9.49946 49.0078 10.3061V14.7967C42.7715 15.1364 36.7519 17.0682 31.4881 20.435C30.5612 21.0278 30.2904 22.2598 30.8833 23.1868C31.2636 23.7811 31.9065 24.1056 32.5635 24.1056C32.9309 24.1056 33.3026 24.004 33.6351 23.7914C38.2568 20.8352 43.5351 19.1265 49.008 18.7914V25.5774C35.8745 26.597 25.5 37.6096 25.5 50.9999C25.5 57.1432 27.6577 62.955 31.6146 67.5693L26.8132 72.3701C21.5838 66.4675 18.7266 58.9535 18.7266 50.9999C18.7266 44.8078 20.4843 38.7934 23.8098 33.6063C24.4037 32.6802 24.1342 31.4478 23.208 30.8541C22.282 30.26 21.0497 30.53 20.4556 31.456C16.7178 37.2859 14.7422 44.044 14.7422 50.9999C14.7422 60.6847 18.5138 69.79 25.3621 76.6384C25.7512 77.0273 26.2608 77.2219 26.7708 77.2219C27.2806 77.2219 27.7904 77.0273 28.1795 76.6384L35.7871 69.0318C36.1606 68.6583 36.3706 68.1515 36.3706 67.6231C36.3706 67.0948 36.1606 66.588 35.7871 66.2145C31.7226 62.1508 29.4844 56.7476 29.4844 50.9999C29.4844 39.8078 38.0747 30.586 49.0078 29.5773V33.9201C49.0078 34.7267 49.4941 35.4537 50.2398 35.7615C50.4856 35.8631 50.7438 35.9123 50.9996 35.9123C51.5196 35.9123 52.0306 35.7089 52.4119 35.3256L64.1658 23.5185C64.9395 22.7413 64.9395 21.4851 64.1658 20.7077ZM52.9922 29.0952V15.1312L59.9429 22.1132L52.9922 29.0952Z" fill="white"/>
<path d="M76.6385 25.362C75.8607 24.5845 74.5993 24.5843 73.8211 25.362L66.2133 32.9684C65.8396 33.342 65.6296 33.8488 65.6296 34.3771C65.6296 34.9054 65.8396 35.4122 66.2131 35.7858C70.2774 39.8494 72.5156 45.2526 72.5156 50.9999C72.5156 62.192 63.9253 71.4139 52.9922 72.4225V68.0746C52.9922 67.2679 52.5059 66.541 51.7602 66.2332C51.0149 65.9256 50.1573 66.0971 49.5881 66.6691L37.8342 78.4762C37.0605 79.2533 37.0605 80.5098 37.8342 81.2869L49.5881 93.0942C49.9694 93.4775 50.4804 93.6809 51.0004 93.6809C51.2564 93.6809 51.5144 93.6317 51.7602 93.5301C52.5057 93.2223 52.9922 92.4954 52.9922 91.6888V87.1982C58.9233 86.8734 64.6825 85.1082 69.758 82.0342C70.6991 81.4642 71 80.2393 70.43 79.2981C69.86 78.357 68.6352 78.0566 67.6939 78.6262C63.2406 81.3232 58.195 82.8924 52.9924 83.2124V76.423C66.1257 75.4036 76.5002 64.3906 76.5002 51.0001C76.5002 44.857 74.3425 39.0454 70.386 34.4311L75.1874 29.6305C80.4164 35.533 83.2734 43.0467 83.2734 50.9999C83.2734 56.9177 81.6582 62.7042 78.6024 67.7335C78.031 68.6738 78.33 69.899 79.2703 70.4704C80.2107 71.0419 81.436 70.7427 82.0074 69.8022C85.4423 64.1495 87.2578 57.6476 87.2578 50.9999C87.2578 41.3153 83.4864 32.2104 76.6385 25.362ZM49.0078 86.8637L42.0571 79.8815L49.0078 72.8996V86.8637Z" fill="white"/>
</svg>
