<svg xmlns="http://www.w3.org/2000/svg" width="641.45" height="504" viewBox="0 0 641.45 504">
  <defs>
    <style>
      .a {
        fill: #fffce3;
      }

      .b {
        fill: #fff;
      }

      .c {
        fill: #091029;
      }

      .d {
        fill: #ff0;
      }

      .e {
        fill: #0a2352;
      }

      .f {
        opacity: 0.65;
      }
    </style>
  </defs>
  <g>
    <g>
      <rect class="a" x="2" y="2" width="637.45" height="500" rx="38.88"/>
      <path class="b" d="M1297.84,308a36.93,36.93,0,0,1,36.89,36.88V767.12A36.93,36.93,0,0,1,1297.84,804H738.16a36.93,36.93,0,0,1-36.89-36.88V344.88A36.93,36.93,0,0,1,738.16,308h559.68m0-4H738.16a40.89,40.89,0,0,0-40.89,40.88V767.12A40.89,40.89,0,0,0,738.16,808h559.68a40.89,40.89,0,0,0,40.89-40.88V344.88A40.89,40.89,0,0,0,1297.84,304Z" transform="translate(-697.27 -304)"/>
    </g>
    <g>
      <rect class="c" x="294.23" y="72.03" width="298.99" height="20.91"/>
      <path class="d" d="M1290,376.53v19.91H992V376.53h298m1-1H991v21.91h300V375.53Z" transform="translate(-697.27 -304)"/>
    </g>
    <g>
      <rect class="c" x="294.23" y="135.77" width="298.99" height="20.91"/>
      <path class="d" d="M1290,440.27v19.92H992V440.27h298m1-1H991v21.92h300V439.27Z" transform="translate(-697.27 -304)"/>
    </g>
    <g>
      <rect class="c" x="294.23" y="199.52" width="298.99" height="20.91"/>
      <path class="d" d="M1290,504v19.91H992V504h298m1-1H991v21.91h300V503Z" transform="translate(-697.27 -304)"/>
    </g>
  </g>
  <path class="e" d="M1196.45,610.59c-3.77-13.45-20.37-18.82-32.74-14.82-16,5.19-24.58,22.05-28.9,37.14-5,17.39-6.55,36.87-18.54,51.31-5,6.08-12,11.13-20.06,12a19,19,0,0,1-11.61-2.06,16,16,0,0,1-7.13-9.32,23.14,23.14,0,0,1,0-12.73,36,36,0,0,1,2.52-6.64,21.32,21.32,0,0,1,3.45-5.67c3.3-3.29,7.57,1.54,9.66,3.95a54.22,54.22,0,0,0,8.21,7.89c12.28,9.23,29.28,12.31,43.91,7.44,8.34-2.78,15.7-7.91,22-14s12.56-13.07,14.72-21.59c1.79-7.09-.06-15.43-6.14-20-7.12-5.29-16.13-1.7-22.12,3.49-6.7,5.81-11.35,14.09-15,22-3.84,8.3-6.76,17-9.85,25.57a436.66,436.66,0,0,1-24.07,54.83q-3.42,6.53-7.06,13a1.5,1.5,0,0,0,2.35,1.81c3.57-2.86,2.71-8.47-.24-11.42-3.71-3.71-9.7-4.47-14.65-5.06-11.75-1.41-23.56.3-35.3.92a99.44,99.44,0,0,1-17.51-.35c-4.94-.62-10.1-1.82-14.22-4.77-8.9-6.4-6.32-18.38-1.62-26.55a61.89,61.89,0,0,1,21.23-21.23c8.71-5.34,20.63-10.59,30.71-6.07,8.41,3.77,13.48,12.43,17.1,20.49,3.89,8.66,6.63,18,12.43,25.63a30.51,30.51,0,0,0,10.8,9.23,34.74,34.74,0,0,0,15.23,3.23c11.5,0,22.22-4.43,33.13-7.47a88.84,88.84,0,0,1,8.83-2l-1.7-2.2-8.82,16.87L1151,742a59.61,59.61,0,0,0-3.59,7.63c-1.64,4.65-1.59,10.13,2.64,13.38,3.49,2.69,8.28,2.74,12.45,2.11a64,64,0,0,0,15.72-5,134.33,134.33,0,0,0,15.35-8.07,265.92,265.92,0,0,0,28.75-19.84,232.92,232.92,0,0,0,25.33-22.9c7.35-7.81,14-16.52,18.27-26.42s6.55-21.8.64-31.62c-5.09-8.44-14.41-13.58-23.94-15.21-11.79-2-24,.31-35.43,3.3a161.4,161.4,0,0,0-32.56,12.51c-19.1,9.76-36.33,22.64-54.46,34A217.87,217.87,0,0,1,1092,701.05a110.65,110.65,0,0,1-15.9,5.69c-5.63,1.49-11.63,2.31-17.41,1.17a23,23,0,0,1-12.72-6.78,20.55,20.55,0,0,1-4.92-13.32c-.33-10.34,4.09-20.62,8.57-29.73,9.46-19.23,23.39-35.94,39.21-50.26,17.52-15.85,37.39-28.82,57.54-41q7.44-4.5,14.93-8.91a1.5,1.5,0,0,0-1.52-2.59c-20.16,11.93-40.29,24-58.8,38.45-17,13.22-32.5,28.52-44.49,46.47A139.49,139.49,0,0,0,1042,668.1c-3.43,9.06-6,19.83-2,29.14s14.06,14,23.86,14.18a54.44,54.44,0,0,0,17.68-3.17,139.26,139.26,0,0,0,14.84-5.9c19.25-8.86,36.47-21.37,54.19-32.86a278.56,278.56,0,0,1,27.4-16,156.22,156.22,0,0,1,32.72-12c11.37-2.76,23.71-4.87,35.21-1.69,8.78,2.43,17.29,8.61,20.14,17.57,3.4,10.72-1.38,22.64-6.8,31.85s-12.71,17.2-20.42,24.57A260,260,0,0,1,1212.41,736a228.47,228.47,0,0,1-28.94,18.28,87.37,87.37,0,0,1-15.81,6.55c-4.28,1.25-9.13,2.45-13.52,1a6.86,6.86,0,0,1-4.34-3.88c-1-2.42-.35-5.15.48-7.52a61.4,61.4,0,0,1,3.75-7.8l4.3-8.22,8.47-16.21a1.52,1.52,0,0,0-1.69-2.2c-19.73,3.37-45.72,19.07-62.71.65-6.53-7.09-9.56-16.61-13.21-25.33-3.52-8.38-8.2-17.06-16-22.25a23.5,23.5,0,0,0-14-3.94c-5.7.22-11.2,2.15-16.33,4.52a67.45,67.45,0,0,0-24,18.74c-6,7.49-11.54,17.47-9.38,27.44,2.3,10.63,13.18,14.4,22.76,15.59,11.84,1.47,23.75-.25,35.59-.89a97.61,97.61,0,0,1,17.68.38c4.3.55,11.46,1.32,13.36,6a4.43,4.43,0,0,1-1.05,5.28l2.36,1.82a443.35,443.35,0,0,0,25.64-53.26c3.52-8.76,6.59-17.67,9.84-26.52,3.09-8.42,6.52-16.79,11.35-24.38a48.16,48.16,0,0,1,8.41-10.34c3-2.7,6.86-5.1,11-5.48,7.85-.7,12.89,6.41,13.15,13.62.3,8.62-5.68,16.15-11.26,22.09-6,6.35-12.91,12-21,15.39-14.19,5.93-31,3.56-43.51-5.28a45.51,45.51,0,0,1-8.26-7.73c-2.38-2.79-5.53-6.24-9.48-6.39-4.51-.16-6.79,4.45-8.53,7.88a35.71,35.71,0,0,0-3.91,12.9c-.72,8,2.59,16.67,9.93,20.57,7.16,3.79,15.93,2.62,22.92-1,15.23-7.8,22-25.12,25.9-40.74,4.24-16.92,6.82-35.75,19.68-48.71,5.11-5.14,11.72-8.9,19.08-9.18,6.34-.24,13.06,1.73,17.72,6.17a17,17,0,0,1,4.68,7.73,1.5,1.5,0,0,0,2.89-.8Z" transform="translate(-697.27 -304)"/>
  <g>
    <path class="e" d="M847.5,381A68.5,68.5,0,1,1,779,449.5,68.58,68.58,0,0,1,847.5,381m0-10A78.5,78.5,0,1,0,926,449.5,78.51,78.51,0,0,0,847.5,371Z" transform="translate(-697.27 -304)"/>
    <g class="f">
      <circle class="d" cx="150.54" cy="145.81" r="72.58"/>
    </g>
    <path class="e" d="M874.5,449.45a14.51,14.51,0,0,0-8.45-5q7.19-3.68,6.32-12.45a12.28,12.28,0,0,0-1.76-5.53,11.06,11.06,0,0,0-4-3.76,21.93,21.93,0,0,0-5.45-2.17,43.67,43.67,0,0,0-6.76-1.09V407.32H847v11.82c-1.29,0-3.25,0-5.89.1V407.32h-7.43v12.16c-1.06,0-2.62,0-4.68,0l-10.23,0v7.92h5.36q3.66,0,4.29,3.28v13.85a4.05,4.05,0,0,1,.77.05h-.77V464a2.58,2.58,0,0,1-2.8,2.47h-5.35l-1.5,8.83h9.65l2.66,0c1.15,0,2,0,2.6,0v12.31h7.43V475.46c1.35,0,3.32.05,5.89.05v12.11h7.43V475.31a55.19,55.19,0,0,0,7-.72,28.67,28.67,0,0,0,5.87-1.66A16,16,0,0,0,872,470.1a13.37,13.37,0,0,0,3.11-4.29,18.4,18.4,0,0,0,1.57-6Q877.3,453.07,874.5,449.45Zm-33.25-21.52,1.9,0c1.05,0,1.92,0,2.61,0s1.62,0,2.8.12a27.93,27.93,0,0,1,3,.39,16.47,16.47,0,0,1,2.65.8,7.21,7.21,0,0,1,2.32,1.35,6.63,6.63,0,0,1,1.47,2,6.4,6.4,0,0,1,.6,2.83,6.69,6.69,0,0,1-.43,2.46,4.67,4.67,0,0,1-1.31,1.86,12.62,12.62,0,0,1-1.78,1.3,8,8,0,0,1-2.34.89c-1,.23-1.78.4-2.49.53a20.2,20.2,0,0,1-2.65.27c-1.06.05-1.87.08-2.41.09s-1.3,0-2.25,0l-1.66,0V427.93Zm20.29,32.86a7,7,0,0,1-1.18,1.93,6.76,6.76,0,0,1-1.91,1.45,16.55,16.55,0,0,1-2.29,1,18.87,18.87,0,0,1-2.68.68c-1.05.19-2,.32-2.75.41s-1.73.14-2.82.19-1.95.07-2.56.07l-2.32,0-1.78,0V450.17c.25,0,1,0,2.29-.05s2.31,0,3.11,0,1.92,0,3.33.14a29.62,29.62,0,0,1,3.57.43,23.13,23.13,0,0,1,3.16.9,9.06,9.06,0,0,1,2.78,1.47,7.18,7.18,0,0,1,1.78,2.22,6.86,6.86,0,0,1,.27,5.55Z" transform="translate(-697.27 -304)"/>
  </g>
</svg>
