<svg xmlns="http://www.w3.org/2000/svg" xmlns:xlink="http://www.w3.org/1999/xlink" width="971.09" height="763" viewBox="0 0 971.09 763">
  <defs>
    <style>
      .a {
        opacity: 0.5;
      }

      .b {
        fill: url(#a);
      }

      .c {
        fill: #fff;
      }

      .d {
        opacity: 0.8;
      }

      .e {
        fill: #fffce3;
      }

      .f {
        fill: #091029;
      }

      .g {
        fill: #ff0;
      }

      .h {
        fill: #0a2352;
      }

      .i {
        opacity: 0.65;
      }
    </style>
    <radialGradient id="a" data-name="Безымянный градиент 18" cx="485.55" cy="381.5" r="614.12" gradientUnits="userSpaceOnUse">
      <stop offset="0" stop-color="#fff"/>
      <stop offset="0" stop-color="#f8f8f8" stop-opacity="0.7"/>
      <stop offset="0.69" stop-color="#292627"/>
    </radialGradient>
  </defs>
  <g>
    <g class="a">
      <rect class="b" x="2" y="2" width="967.09" height="759" rx="38.88"/>
      <path class="c" d="M1435.3,157a36.92,36.92,0,0,1,36.88,36.88V875.12A36.92,36.92,0,0,1,1435.3,912H546a36.93,36.93,0,0,1-36.88-36.88V193.88A36.93,36.93,0,0,1,546,157H1435.3m0-4H546a40.88,40.88,0,0,0-40.88,40.88V875.12A40.88,40.88,0,0,0,546,916H1435.3a40.88,40.88,0,0,0,40.88-40.88V193.88A40.88,40.88,0,0,0,1435.3,153Z" transform="translate(-505.09 -153)"/>
    </g>
    <g class="d">
      <path class="c" d="M1435.3,163a30.91,30.91,0,0,1,30.88,30.88V875.12A30.91,30.91,0,0,1,1435.3,906H546a30.91,30.91,0,0,1-30.88-30.88V193.88A30.91,30.91,0,0,1,546,163H1435.3m0-10H546a40.88,40.88,0,0,0-40.88,40.88V875.12A40.88,40.88,0,0,0,546,916H1435.3a40.88,40.88,0,0,0,40.88-40.88V193.88A40.88,40.88,0,0,0,1435.3,153Z" transform="translate(-505.09 -153)"/>
    </g>
  </g>
  <g>
    <g>
      <g>
        <rect class="e" x="553.18" y="397" width="370.18" height="290" rx="38.88"/>
        <path class="c" d="M1389.57,552a36.92,36.92,0,0,1,36.88,36.88V801.12A36.92,36.92,0,0,1,1389.57,838H1097.16a36.93,36.93,0,0,1-36.89-36.88V588.88A36.93,36.93,0,0,1,1097.16,552h292.41m0-4H1097.16a40.89,40.89,0,0,0-40.89,40.88V801.12A40.89,40.89,0,0,0,1097.16,842h292.41a40.88,40.88,0,0,0,40.88-40.88V588.88A40.88,40.88,0,0,0,1389.57,548Z" transform="translate(-505.09 -153)"/>
      </g>
      <g>
        <rect class="f" x="723.02" y="437.22" width="173.99" height="11.78"/>
        <path class="g" d="M1401.61,590.72v10.79h-173V590.72h173m1-1h-175v12.79h175V589.72Z" transform="translate(-505.09 -153)"/>
      </g>
      <g>
        <rect class="f" x="723.02" y="474.41" width="173.99" height="11.78"/>
        <path class="g" d="M1401.61,627.91v10.78h-173V627.91h173m1-1h-175v12.78h175V626.91Z" transform="translate(-505.09 -153)"/>
      </g>
      <g>
        <rect class="f" x="723.02" y="511.59" width="173.99" height="11.78"/>
        <path class="g" d="M1401.61,665.09v10.79h-173V665.09h173m1-1h-175v12.79h175V664.09Z" transform="translate(-505.09 -153)"/>
      </g>
    </g>
    <path class="h" d="M1348.06,726.68c-2.28-8-11.8-11.34-19.29-9.26-9.38,2.61-14.77,12.21-17.45,20.88-3.15,10.19-3.83,21.61-10.52,30.36-2.8,3.67-6.77,6.75-11.42,7.48-5,.78-9.54-1.61-10.86-6.6a13.55,13.55,0,0,1,.43-7.67,21.79,21.79,0,0,1,1.62-3.67c.48-.89,1.16-2.6,2.36-2.65,1,0,2,.92,2.66,1.57.86.83,1.58,1.79,2.4,2.67a27.7,27.7,0,0,0,5.13,4.28,29,29,0,0,0,26.36,2.7,38,38,0,0,0,12.42-8.69c3.6-3.66,7.19-8,8-13.26.63-4.2-.94-9-4.67-11.27-4.4-2.72-9.56-.59-13.12,2.48-3.89,3.36-6.62,8.16-8.77,12.76-2.25,4.8-4,9.83-5.75,14.82a256.22,256.22,0,0,1-14.13,32.27q-2,3.82-4.14,7.59a1.51,1.51,0,0,0,2.36,1.82c2-1.72,1.93-4.9.4-6.91-1.8-2.37-4.94-3.08-7.72-3.52-6.82-1.09-13.69-.28-20.52.17a68.69,68.69,0,0,1-10.54.07,20.88,20.88,0,0,1-8.44-2.16c-5.7-3.2-4.78-9.94-2.07-14.89a35.12,35.12,0,0,1,12.56-12.69c5-3,11.86-6.06,17.55-3.25,4.84,2.39,7.68,7.63,9.72,12.4,2.18,5.13,3.94,10.51,7.5,14.9,4.32,5.32,10.86,7.23,17.52,6.65,7.67-.67,14.68-4.15,22.21-5.45l-1.69-2.2-5.22,10c-1.61,3.08-3.54,6.14-4.68,9.44-1,2.74-.94,6,1.37,8.07,1.86,1.7,4.56,2.06,7,1.83,6.44-.59,12.71-3.88,18.21-7.07a153.42,153.42,0,0,0,16.72-11.28,144.56,144.56,0,0,0,15.25-13.47,58.61,58.61,0,0,0,11.06-15.06c2.78-5.75,4.65-12.68,2-18.82-2.19-5-7-8.59-12.13-10.2-6.8-2.14-14.18-1.1-21,.42a93.23,93.23,0,0,0-19.48,6.75c-11.42,5.41-21.63,12.94-32.24,19.73a144.52,144.52,0,0,1-16.16,9.18c-5.9,2.79-12.66,5.68-19.32,5.36-5.85-.28-11.07-3.83-11.91-9.89s1.84-12.31,4.37-17.62c11.57-24.3,34.25-40.36,56.63-53.91q4.35-2.62,8.73-5.21a1.5,1.5,0,0,0-1.52-2.59c-22.41,13.26-45.44,27.44-60.28,49.47a82,82,0,0,0-8.58,16.39c-2,5.2-3.53,11.34-1.62,16.8s7.25,8.83,13,9.46c6.4.71,12.86-1.69,18.65-4.15,11.35-4.82,21.47-12,31.72-18.71,10.76-7.08,21.81-13.54,34.3-17,6.66-1.86,14-3.51,20.94-2.29,5.33.94,10.61,3.85,13,8.89,2.81,5.87.27,13-2.64,18.29a62.6,62.6,0,0,1-11.42,14.4,145.82,145.82,0,0,1-31.9,23.8,56.28,56.28,0,0,1-8.93,4c-2.6.87-5.67,1.87-8.44,1.24-3-.7-3.37-3.39-2.47-6,1.11-3.18,3.05-6.17,4.6-9.15l5-9.55a1.52,1.52,0,0,0-1.7-2.2c-11.43,2-26.72,11.18-36.34.13-7.25-8.34-7.17-21.77-17.39-27.84-5.59-3.32-12-1.87-17.58.69a39.86,39.86,0,0,0-14.16,11c-3.67,4.51-6.9,10.37-5.79,16.39s6.87,8.81,12.39,9.67c7.76,1.22,15.54,0,23.32-.34a47.41,47.41,0,0,1,11.41.61c1.56.32,3.42.71,4.56,1.93a2.22,2.22,0,0,1,.08,3.25l2.36,1.82a261.28,261.28,0,0,0,15-31.09c2-5,3.81-10.19,5.68-15.3a74.66,74.66,0,0,1,6.46-14c2.43-3.89,6.12-8.85,11.12-9.26,4.58-.38,7.12,4.22,6.9,8.28-.28,5-4.16,9.31-7.51,12.67a32.82,32.82,0,0,1-12.44,8.24,26.14,26.14,0,0,1-24.85-4.83c-2.86-2.44-6.1-8.44-10.64-6.87-2.37.82-3.62,3.76-4.56,5.87a19.86,19.86,0,0,0-1.85,7.53c-.13,4.63,2,9.51,6.26,11.7s9.3,1.6,13.47-.41c8.85-4.26,13.13-14.07,15.49-23,2.58-9.84,3.8-20.87,11-28.7,2.8-3.07,6.54-5.55,10.77-5.88a13.87,13.87,0,0,1,10.37,3.25,9.39,9.39,0,0,1,2.71,4.37,1.5,1.5,0,0,0,2.89-.8Z" transform="translate(-505.09 -153)"/>
    <g>
      <path class="h" d="M1143.91,597.08a35.8,35.8,0,1,1-35.8,35.8,35.84,35.84,0,0,1,35.8-35.8m0-10a45.8,45.8,0,1,0,45.79,45.8,45.8,45.8,0,0,0-45.79-45.8Z" transform="translate(-505.09 -153)"/>
      <g class="i">
        <circle class="g" cx="639" cy="480.06" r="42.34"/>
      </g>
      <path class="h" d="M1159.65,632.84a8.46,8.46,0,0,0-4.92-2.89q4.18-2.15,3.68-7.27a7.16,7.16,0,0,0-1-3.22,6.46,6.46,0,0,0-2.33-2.19,12.37,12.37,0,0,0-3.18-1.27,26.17,26.17,0,0,0-3.94-.64v-7.09h-4.33v6.9c-.75,0-1.9,0-3.44.05v-7h-4.33v7.09q-.93,0-2.73,0l-6,0V620h3.12a2.24,2.24,0,0,1,2.51,1.92V630a2.64,2.64,0,0,1,.45,0h-.45v11.32a1.49,1.49,0,0,1-1.63,1.43H1128l-.87,5.16h8.7v7.18h4.33V648c.79,0,1.94,0,3.44,0v7.06h4.33v-7.18a32.28,32.28,0,0,0,4.1-.42,17,17,0,0,0,3.42-1,9.11,9.11,0,0,0,2.73-1.65,7.6,7.6,0,0,0,1.81-2.5,10.64,10.64,0,0,0,.92-3.52Q1161.28,635,1159.65,632.84Zm-19.39-12.55h1.11l1.52,0a15.07,15.07,0,0,1,1.63.07,14.92,14.92,0,0,1,1.73.22,9.84,9.84,0,0,1,1.55.47,4,4,0,0,1,1.35.79A3.79,3.79,0,0,1,1150,623a3.62,3.62,0,0,1,.35,1.64,3.89,3.89,0,0,1-.25,1.44,2.69,2.69,0,0,1-.76,1.08,6.56,6.56,0,0,1-1,.76,4.9,4.9,0,0,1-1.37.53c-.55.13-1,.23-1.45.3a11.09,11.09,0,0,1-1.54.16l-1.41.06h-1.31l-1,0v-8.64Zm11.83,19.17a3.87,3.87,0,0,1-.68,1.13,4.15,4.15,0,0,1-1.12.84,10.07,10.07,0,0,1-1.33.59,12.26,12.26,0,0,1-1.57.4c-.61.11-1.14.19-1.6.24s-1,.08-1.65.11-1.13,0-1.49,0h-1.35l-1,0v-9.51l1.33,0,1.82,0c.47,0,1.12,0,1.94.09a16.21,16.21,0,0,1,2.09.25,12.78,12.78,0,0,1,1.84.52,5.13,5.13,0,0,1,1.62.86,4.31,4.31,0,0,1,1,1.29,3.79,3.79,0,0,1,.42,1.8A3.7,3.7,0,0,1,1152.09,639.46Z" transform="translate(-505.09 -153)"/>
    </g>
  </g>
  <g>
    <g>
      <g>
        <rect class="e" x="47.18" y="397" width="370.18" height="290" rx="38.88"/>
        <path class="c" d="M883.57,552a36.93,36.93,0,0,1,36.89,36.88V801.12A36.93,36.93,0,0,1,883.57,838H591.16a36.93,36.93,0,0,1-36.89-36.88V588.88A36.93,36.93,0,0,1,591.16,552H883.57m0-4H591.16a40.89,40.89,0,0,0-40.89,40.88V801.12A40.89,40.89,0,0,0,591.16,842H883.57a40.89,40.89,0,0,0,40.89-40.88V588.88A40.89,40.89,0,0,0,883.57,548Z" transform="translate(-505.09 -153)"/>
      </g>
      <g>
        <rect class="f" x="207.02" y="437.22" width="173.99" height="11.78"/>
        <path class="g" d="M885.61,590.72v10.79h-173V590.72h173m1-1h-175v12.79h175V589.72Z" transform="translate(-505.09 -153)"/>
      </g>
      <g>
        <rect class="f" x="207.02" y="474.41" width="173.99" height="11.78"/>
        <path class="g" d="M885.61,627.91v10.78h-173V627.91h173m1-1h-175v12.78h175V626.91Z" transform="translate(-505.09 -153)"/>
      </g>
      <g>
        <rect class="f" x="207.02" y="511.59" width="173.99" height="11.78"/>
        <path class="g" d="M885.61,665.09v10.79h-173V665.09h173m1-1h-175v12.79h175V664.09Z" transform="translate(-505.09 -153)"/>
      </g>
    </g>
    <path class="h" d="M832.06,726.68c-2.28-8-11.8-11.34-19.29-9.26C803.39,720,798,729.63,795.32,738.3c-3.15,10.19-3.83,21.61-10.52,30.36-2.8,3.67-6.77,6.75-11.42,7.48-5,.78-9.54-1.61-10.86-6.6a13.55,13.55,0,0,1,.43-7.67,21.79,21.79,0,0,1,1.62-3.67c.48-.89,1.16-2.6,2.36-2.65,1,0,2,.92,2.66,1.57.86.83,1.58,1.79,2.4,2.67a27.7,27.7,0,0,0,5.13,4.28,29,29,0,0,0,26.36,2.7,38,38,0,0,0,12.42-8.69c3.6-3.66,7.19-8,8-13.26.63-4.2-.94-9-4.67-11.27-4.4-2.72-9.56-.59-13.12,2.48-3.89,3.36-6.62,8.16-8.77,12.76-2.25,4.8-4,9.83-5.75,14.82a256.22,256.22,0,0,1-14.13,32.27q-2,3.82-4.14,7.59a1.51,1.51,0,0,0,2.36,1.82c2-1.72,1.93-4.9.4-6.91-1.8-2.37-4.94-3.08-7.72-3.52-6.82-1.09-13.69-.28-20.52.17a68.69,68.69,0,0,1-10.54.07,20.88,20.88,0,0,1-8.44-2.16c-5.7-3.2-4.78-9.94-2.07-14.89a35.12,35.12,0,0,1,12.56-12.69c5-3,11.86-6.06,17.55-3.25,4.84,2.39,7.68,7.63,9.72,12.4,2.18,5.13,3.94,10.51,7.5,14.9,4.32,5.32,10.86,7.23,17.52,6.65,7.67-.67,14.68-4.15,22.21-5.45l-1.69-2.2-5.22,10c-1.61,3.08-3.54,6.14-4.68,9.44-1,2.74-.94,6,1.37,8.07,1.86,1.7,4.56,2.06,7,1.83,6.44-.59,12.71-3.88,18.21-7.07a153.42,153.42,0,0,0,16.72-11.28,144.56,144.56,0,0,0,15.25-13.47,58.61,58.61,0,0,0,11.06-15.06c2.78-5.75,4.65-12.68,2-18.82-2.19-5-7-8.59-12.13-10.2-6.8-2.14-14.18-1.1-21,.42A93.23,93.23,0,0,0,821.19,749c-11.42,5.41-21.63,12.94-32.24,19.73a144.52,144.52,0,0,1-16.16,9.18c-5.9,2.79-12.66,5.68-19.32,5.36-5.85-.28-11.07-3.83-11.91-9.89s1.84-12.31,4.37-17.62c11.57-24.3,34.25-40.36,56.63-53.91q4.35-2.62,8.73-5.21a1.5,1.5,0,0,0-1.52-2.59c-22.41,13.26-45.44,27.44-60.28,49.47a82,82,0,0,0-8.58,16.39c-2,5.2-3.53,11.34-1.62,16.8s7.25,8.83,13,9.46c6.4.71,12.86-1.69,18.65-4.15,11.35-4.82,21.47-12,31.72-18.71,10.76-7.08,21.81-13.54,34.3-17,6.66-1.86,14-3.51,20.94-2.29,5.33.94,10.61,3.85,13,8.89,2.81,5.87.27,13-2.64,18.29a62.6,62.6,0,0,1-11.42,14.4,145.82,145.82,0,0,1-31.9,23.8,56.28,56.28,0,0,1-8.93,4c-2.6.87-5.67,1.87-8.44,1.24-3.05-.7-3.37-3.39-2.47-6,1.11-3.18,3-6.17,4.6-9.15l5-9.55a1.52,1.52,0,0,0-1.7-2.2c-11.43,2-26.72,11.18-36.34.13-7.25-8.34-7.17-21.77-17.39-27.84-5.59-3.32-12-1.87-17.58.69a39.86,39.86,0,0,0-14.16,11c-3.67,4.51-6.9,10.37-5.79,16.39s6.87,8.81,12.39,9.67c7.76,1.22,15.54,0,23.32-.34a47.41,47.41,0,0,1,11.41.61c1.56.32,3.42.71,4.56,1.93a2.22,2.22,0,0,1,.08,3.25l2.36,1.82a261.28,261.28,0,0,0,15-31.09c2-5,3.81-10.19,5.68-15.3a74.66,74.66,0,0,1,6.46-14c2.43-3.89,6.12-8.85,11.12-9.26,4.58-.38,7.12,4.22,6.9,8.28-.28,5-4.16,9.31-7.51,12.67a32.82,32.82,0,0,1-12.44,8.24,26.14,26.14,0,0,1-24.85-4.83c-2.86-2.44-6.1-8.44-10.64-6.87-2.37.82-3.62,3.76-4.56,5.87a19.86,19.86,0,0,0-1.85,7.53c-.13,4.63,2,9.51,6.26,11.7s9.3,1.6,13.47-.41c8.85-4.26,13.13-14.07,15.49-23,2.58-9.84,3.8-20.87,11-28.7,2.8-3.07,6.54-5.55,10.77-5.88a13.87,13.87,0,0,1,10.37,3.25,9.39,9.39,0,0,1,2.71,4.37,1.5,1.5,0,0,0,2.89-.8Z" transform="translate(-505.09 -153)"/>
    <g>
      <path class="h" d="M627.91,597.08a35.8,35.8,0,1,1-35.8,35.8,35.84,35.84,0,0,1,35.8-35.8m0-10a45.8,45.8,0,1,0,45.79,45.8,45.8,45.8,0,0,0-45.79-45.8Z" transform="translate(-505.09 -153)"/>
      <g class="i">
        <circle class="g" cx="123" cy="480.06" r="42.34"/>
      </g>
      <path class="h" d="M643.65,632.84a8.46,8.46,0,0,0-4.92-2.89q4.18-2.15,3.68-7.27a7.16,7.16,0,0,0-1-3.22,6.46,6.46,0,0,0-2.33-2.19,12.37,12.37,0,0,0-3.18-1.27,26.17,26.17,0,0,0-3.94-.64v-7.09h-4.33v6.9c-.75,0-1.9,0-3.44.05v-7h-4.33v7.09q-.93,0-2.73,0l-6,0V620h3.12a2.24,2.24,0,0,1,2.51,1.92V630a2.64,2.64,0,0,1,.45,0h-.45v11.32a1.49,1.49,0,0,1-1.63,1.43H612l-.87,5.16h8.7v7.18h4.33V648c.79,0,1.94,0,3.44,0v7.06h4.33v-7.18a32.28,32.28,0,0,0,4.1-.42,17,17,0,0,0,3.42-1,9.11,9.11,0,0,0,2.73-1.65,7.6,7.6,0,0,0,1.81-2.5,10.64,10.64,0,0,0,.92-3.52Q645.28,635,643.65,632.84Zm-19.39-12.55h1.11l1.52,0a15.07,15.07,0,0,1,1.63.07,14.92,14.92,0,0,1,1.73.22,9.84,9.84,0,0,1,1.55.47,4,4,0,0,1,1.35.79A3.79,3.79,0,0,1,634,623a3.62,3.62,0,0,1,.35,1.64,3.89,3.89,0,0,1-.25,1.44,2.69,2.69,0,0,1-.76,1.08,6.56,6.56,0,0,1-1,.76,4.9,4.9,0,0,1-1.37.53c-.55.13-1,.23-1.45.3a11.09,11.09,0,0,1-1.54.16l-1.41.06h-1.31l-1,0v-8.64Zm11.83,19.17a3.87,3.87,0,0,1-.68,1.13,4.15,4.15,0,0,1-1.12.84A10.07,10.07,0,0,1,633,642a12.26,12.26,0,0,1-1.57.4c-.61.11-1.14.19-1.6.24s-1,.08-1.65.11-1.13,0-1.49,0H625.3l-1,0v-9.51l1.33,0,1.82,0c.47,0,1.12,0,1.94.09a16.21,16.21,0,0,1,2.09.25,12.78,12.78,0,0,1,1.84.52,5.13,5.13,0,0,1,1.62.86,4.31,4.31,0,0,1,1,1.29,3.79,3.79,0,0,1,.42,1.8A3.7,3.7,0,0,1,636.09,639.46Z" transform="translate(-505.09 -153)"/>
    </g>
  </g>
  <g>
    <g>
      <g>
        <rect class="e" x="300.18" y="54" width="370.18" height="290" rx="38.88"/>
        <path class="c" d="M1136.57,209a36.92,36.92,0,0,1,36.88,36.88V458.12A36.92,36.92,0,0,1,1136.57,495H844.16a36.93,36.93,0,0,1-36.89-36.88V245.88A36.93,36.93,0,0,1,844.16,209h292.41m0-4H844.16a40.89,40.89,0,0,0-40.89,40.88V458.12A40.89,40.89,0,0,0,844.16,499h292.41a40.88,40.88,0,0,0,40.88-40.88V245.88A40.88,40.88,0,0,0,1136.57,205Z" transform="translate(-505.09 -153)"/>
      </g>
      <g>
        <rect class="f" x="470.02" y="94.22" width="173.99" height="11.78"/>
        <path class="g" d="M1148.61,247.72v10.79h-173V247.72h173m1-1h-175v12.79h175V246.72Z" transform="translate(-505.09 -153)"/>
      </g>
      <g>
        <rect class="f" x="470.02" y="131.41" width="173.99" height="11.78"/>
        <path class="g" d="M1148.61,284.91v10.78h-173V284.91h173m1-1h-175v12.78h175V283.91Z" transform="translate(-505.09 -153)"/>
      </g>
      <g>
        <rect class="f" x="470.02" y="168.59" width="173.99" height="11.78"/>
        <path class="g" d="M1148.61,322.09v10.79h-173V322.09h173m1-1h-175v12.79h175V321.09Z" transform="translate(-505.09 -153)"/>
      </g>
    </g>
    <path class="h" d="M1095.06,383.68c-2.28-8-11.8-11.34-19.29-9.26-9.38,2.61-14.77,12.21-17.45,20.88-3.15,10.19-3.83,21.61-10.52,30.36-2.8,3.67-6.77,6.75-11.42,7.48-5,.78-9.54-1.61-10.86-6.6a13.55,13.55,0,0,1,.43-7.67,21.79,21.79,0,0,1,1.62-3.67c.48-.89,1.16-2.6,2.36-2.65,1,0,2,.92,2.66,1.57.86.83,1.58,1.79,2.4,2.67a27.7,27.7,0,0,0,5.13,4.28,29,29,0,0,0,26.36,2.7,38,38,0,0,0,12.42-8.69c3.6-3.66,7.19-8,8-13.26.63-4.2-.94-9-4.67-11.27-4.4-2.72-9.56-.59-13.12,2.48-3.89,3.36-6.62,8.16-8.77,12.76-2.25,4.8-4,9.83-5.75,14.82a256.22,256.22,0,0,1-14.13,32.27q-2,3.83-4.14,7.59a1.51,1.51,0,0,0,2.36,1.82c2-1.72,1.93-4.9.4-6.91-1.8-2.37-4.94-3.08-7.72-3.52-6.82-1.09-13.69-.28-20.52.17a68.69,68.69,0,0,1-10.54.07,20.88,20.88,0,0,1-8.44-2.16c-5.7-3.2-4.78-9.94-2.07-14.89a35.12,35.12,0,0,1,12.56-12.69c5-3,11.86-6.06,17.55-3.25,4.84,2.39,7.68,7.63,9.72,12.4,2.18,5.13,3.94,10.51,7.5,14.9,4.32,5.32,10.86,7.23,17.52,6.65,7.67-.67,14.68-4.15,22.21-5.45l-1.69-2.2-5.22,10c-1.61,3.08-3.54,6.14-4.68,9.44-1,2.74-.94,6,1.37,8.07,1.86,1.7,4.56,2.06,7,1.83,6.44-.59,12.71-3.88,18.21-7.07a153.42,153.42,0,0,0,16.72-11.28,144.56,144.56,0,0,0,15.25-13.47,58.61,58.61,0,0,0,11.06-15.06c2.78-5.75,4.65-12.68,2-18.82-2.19-5-7-8.59-12.13-10.2-6.8-2.14-14.18-1.1-21,.42a93.23,93.23,0,0,0-19.48,6.75c-11.42,5.41-21.63,12.94-32.24,19.73a144.52,144.52,0,0,1-16.16,9.18c-5.9,2.79-12.66,5.68-19.32,5.36-5.85-.28-11.07-3.83-11.91-9.89s1.84-12.31,4.37-17.62c11.57-24.3,34.25-40.36,56.63-53.91q4.35-2.62,8.73-5.21a1.5,1.5,0,0,0-1.52-2.59c-22.41,13.26-45.44,27.44-60.28,49.47a82,82,0,0,0-8.58,16.39c-2,5.2-3.53,11.34-1.62,16.8,2,5.61,7.25,8.83,13,9.46,6.4.71,12.86-1.69,18.65-4.15,11.35-4.82,21.47-12,31.72-18.71,10.76-7.08,21.81-13.54,34.3-17,6.66-1.86,14-3.51,20.94-2.29,5.33.94,10.61,3.85,13,8.89,2.81,5.87.27,13-2.64,18.29a62.6,62.6,0,0,1-11.42,14.4,145.82,145.82,0,0,1-31.9,23.8,56.28,56.28,0,0,1-8.93,4c-2.6.87-5.67,1.87-8.44,1.24-3-.7-3.37-3.39-2.47-6,1.11-3.18,3.05-6.17,4.6-9.15l5-9.55a1.52,1.52,0,0,0-1.7-2.2c-11.43,2-26.72,11.18-36.34.13-7.25-8.34-7.17-21.77-17.39-27.84-5.59-3.32-12-1.87-17.58.69a39.86,39.86,0,0,0-14.16,11c-3.67,4.51-6.9,10.37-5.79,16.39s6.87,8.81,12.39,9.67c7.76,1.22,15.54,0,23.32-.34a47.41,47.41,0,0,1,11.41.61c1.56.32,3.42.71,4.56,1.93a2.22,2.22,0,0,1,.08,3.25l2.36,1.82a261.28,261.28,0,0,0,15-31.09c2-5,3.81-10.19,5.68-15.3a74.66,74.66,0,0,1,6.46-14c2.43-3.89,6.12-8.85,11.12-9.26,4.58-.38,7.12,4.22,6.9,8.28-.28,5-4.16,9.31-7.51,12.67a32.82,32.82,0,0,1-12.44,8.24,26.14,26.14,0,0,1-24.85-4.83c-2.86-2.44-6.1-8.44-10.64-6.87-2.37.82-3.62,3.76-4.56,5.87a19.86,19.86,0,0,0-1.85,7.53c-.13,4.63,2,9.51,6.26,11.7s9.3,1.6,13.47-.41c8.85-4.26,13.13-14.07,15.49-23,2.58-9.84,3.8-20.87,11-28.7,2.8-3.07,6.54-5.55,10.77-5.88a13.87,13.87,0,0,1,10.37,3.25,9.39,9.39,0,0,1,2.71,4.37,1.5,1.5,0,0,0,2.89-.8Z" transform="translate(-505.09 -153)"/>
    <g>
      <path class="h" d="M890.91,254.08a35.8,35.8,0,1,1-35.8,35.8,35.84,35.84,0,0,1,35.8-35.8m0-10a45.8,45.8,0,1,0,45.79,45.8,45.8,45.8,0,0,0-45.79-45.8Z" transform="translate(-505.09 -153)"/>
      <g class="i">
        <circle class="g" cx="386" cy="137.06" r="42.34"/>
      </g>
      <path class="h" d="M906.65,289.84a8.46,8.46,0,0,0-4.92-2.89q4.18-2.15,3.68-7.27a7.16,7.16,0,0,0-1-3.22,6.46,6.46,0,0,0-2.33-2.19,12.37,12.37,0,0,0-3.18-1.27,26.17,26.17,0,0,0-3.94-.64v-7.09h-4.33v6.9c-.75,0-1.9,0-3.44.05v-7h-4.33v7.09q-.93,0-2.73,0l-6,0V277h3.12a2.24,2.24,0,0,1,2.51,1.92V287a2.64,2.64,0,0,1,.45,0h-.45v11.32a1.49,1.49,0,0,1-1.63,1.43H875l-.87,5.16h8.7v7.18h4.33V305c.79,0,1.94,0,3.44,0v7.06h4.33v-7.18a32.28,32.28,0,0,0,4.1-.42,17,17,0,0,0,3.42-1,9.11,9.11,0,0,0,2.73-1.65,7.6,7.6,0,0,0,1.81-2.5,10.64,10.64,0,0,0,.92-3.52Q908.28,292,906.65,289.84Zm-19.39-12.55h1.11l1.52,0a15.07,15.07,0,0,1,1.63.07,14.92,14.92,0,0,1,1.73.22,9.84,9.84,0,0,1,1.55.47,4,4,0,0,1,1.35.79A3.79,3.79,0,0,1,897,280a3.62,3.62,0,0,1,.35,1.64,3.89,3.89,0,0,1-.25,1.44,2.69,2.69,0,0,1-.76,1.08,6.56,6.56,0,0,1-1,.76,4.9,4.9,0,0,1-1.37.53c-.55.13-1,.23-1.45.3a11.09,11.09,0,0,1-1.54.16l-1.41.06h-1.31l-1,0v-8.64Zm11.83,19.17a3.87,3.87,0,0,1-.68,1.13,4.15,4.15,0,0,1-1.12.84A10.07,10.07,0,0,1,896,299a12.26,12.26,0,0,1-1.57.4c-.61.11-1.14.19-1.6.24s-1,.08-1.65.11-1.13,0-1.49,0H888.3l-1,0v-9.51l1.33,0,1.82,0c.47,0,1.12,0,1.94.09a16.21,16.21,0,0,1,2.09.25,12.78,12.78,0,0,1,1.84.52,5.13,5.13,0,0,1,1.62.86,4.31,4.31,0,0,1,1,1.29,3.79,3.79,0,0,1,.42,1.8A3.7,3.7,0,0,1,899.09,296.46Z" transform="translate(-505.09 -153)"/>
    </g>
  </g>
</svg>
