<svg xmlns="http://www.w3.org/2000/svg" width="504" height="279" viewBox="0 0 504 279">
  <defs>
    <style>
      .a {
        fill: #fff;
      }

      .b {
        fill: #ff0;
      }
    </style>
  </defs>
  <g>
    <path class="a" d="M1093,449a116,116,0,1,1-82,34,115.24,115.24,0,0,1,82-34m0-10a126,126,0,1,0,126,126,126,126,0,0,0-126-126Z" transform="translate(-715 -412)"/>
    <circle class="b" cx="378.5" cy="153.5" r="116.5"/>
    <path d="M1136.33,564.92q-4.49-5.82-13.55-8,11.54-5.9,10.14-20a19.8,19.8,0,0,0-2.82-8.86,17.7,17.7,0,0,0-6.4-6,34.87,34.87,0,0,0-8.75-3.49,68.93,68.93,0,0,0-10.84-1.74V497.3h-11.93v19q-3.11,0-9.45.15V497.3H1070.8v19.52c-1.7,0-4.21.08-7.51.08l-16.42-.08v12.7h8.6q5.88,0,6.89,5.27V557a8,8,0,0,1,1.24.08h-1.24v31.13c-.41,2.64-1.91,3.95-4.49,3.95h-8.6l-2.4,14.18h15.49c1,0,2.4,0,4.26,0l4.18,0v19.76h11.93V606.67q3.26.08,9.45.07v19.45h11.93V606.43a91.5,91.5,0,0,0,11.27-1.16,46,46,0,0,0,9.41-2.67,25.28,25.28,0,0,0,7.51-4.53,21.39,21.39,0,0,0,5-6.9,29.32,29.32,0,0,0,2.51-9.68Q1140.83,570.74,1136.33,564.92ZM1083,530.37l3.06,0c1.68,0,3.08-.05,4.19-.08s2.6,0,4.49.2a41.16,41.16,0,0,1,4.76.62,26.25,26.25,0,0,1,4.26,1.28,11.55,11.55,0,0,1,3.72,2.16,10.78,10.78,0,0,1,2.36,3.26,10.06,10.06,0,0,1,1,4.53,10.68,10.68,0,0,1-.7,4,7.37,7.37,0,0,1-2.09,3,21,21,0,0,1-2.86,2.09,13,13,0,0,1-3.76,1.44c-1.52.36-2.85.64-4,.85a32.5,32.5,0,0,1-4.26.42l-3.87.16q-1.32,0-3.6,0l-2.68,0V530.37Zm32.57,52.75a11,11,0,0,1-1.89,3.1,10.81,10.81,0,0,1-3.06,2.32,27.53,27.53,0,0,1-3.68,1.63,30.15,30.15,0,0,1-4.3,1.08c-1.68.31-3.15.53-4.42.66s-2.77.23-4.53.31-3.12.12-4.1.12-2.22,0-3.72,0l-2.87,0V566.08l3.68-.08c2,0,3.71-.08,5-.08s3.07.08,5.34.24a45.19,45.19,0,0,1,5.74.69,37.71,37.71,0,0,1,5.07,1.44,14.51,14.51,0,0,1,4.45,2.36,11.59,11.59,0,0,1,2.87,3.56,10.41,10.41,0,0,1,1.16,5A10.07,10.07,0,0,1,1115.53,583.12Z" transform="translate(-715 -412)"/>
  </g>
  <g>
    <path class="a" d="M841,446a116,116,0,1,1-82,34,115.24,115.24,0,0,1,82-34m0-10A126,126,0,1,0,967,562,126,126,0,0,0,841,436Z" transform="translate(-715 -412)"/>
    <circle class="b" cx="126.5" cy="150.5" r="116.5"/>
    <path d="M884.33,561.92q-4.49-5.82-13.55-8,11.54-5.9,10.14-20a19.8,19.8,0,0,0-2.82-8.86,17.7,17.7,0,0,0-6.4-6,34.87,34.87,0,0,0-8.75-3.49,68.93,68.93,0,0,0-10.84-1.74V494.3H840.18v19q-3.1,0-9.45.15V494.3H818.8v19.52c-1.7,0-4.21.08-7.51.08l-16.42-.08v12.7h8.6q5.88,0,6.89,5.27V554a8,8,0,0,1,1.24.08h-1.24v31.13c-.41,2.64-1.91,3.95-4.49,3.95h-8.6l-2.4,14.18h15.49c1,0,2.4,0,4.26,0l4.18,0v19.76h11.93V603.67q3.25.08,9.45.07v19.45h11.93V603.43a91.5,91.5,0,0,0,11.27-1.16,46,46,0,0,0,9.41-2.67,25.28,25.28,0,0,0,7.51-4.53,21.39,21.39,0,0,0,5-6.9,29.32,29.32,0,0,0,2.51-9.68Q888.83,567.74,884.33,561.92ZM831,527.37l3.06,0c1.68,0,3.08-.05,4.19-.08s2.6,0,4.49.2a41.16,41.16,0,0,1,4.76.62,26.25,26.25,0,0,1,4.26,1.28,11.55,11.55,0,0,1,3.72,2.16,10.78,10.78,0,0,1,2.36,3.26,10.06,10.06,0,0,1,1,4.53,10.68,10.68,0,0,1-.7,4,7.37,7.37,0,0,1-2.09,3,21,21,0,0,1-2.86,2.09,13,13,0,0,1-3.76,1.44c-1.52.36-2.85.64-4,.85a32.5,32.5,0,0,1-4.26.42l-3.87.16q-1.32,0-3.6,0l-2.68,0V527.37Zm32.57,52.75a11,11,0,0,1-1.89,3.1,10.81,10.81,0,0,1-3.06,2.32,27.53,27.53,0,0,1-3.68,1.63,30.15,30.15,0,0,1-4.3,1.08c-1.68.31-3.15.53-4.42.66s-2.77.23-4.53.31-3.12.12-4.1.12-2.22,0-3.72,0l-2.87,0V563.08l3.68-.08c2,0,3.71-.08,5-.08s3.07.08,5.34.24a45.19,45.19,0,0,1,5.74.69,37.71,37.71,0,0,1,5.07,1.44,14.51,14.51,0,0,1,4.45,2.36,11.59,11.59,0,0,1,2.87,3.56,10.41,10.41,0,0,1,1.16,5A10.07,10.07,0,0,1,863.53,580.12Z" transform="translate(-715 -412)"/>
  </g>
  <g>
    <path class="a" d="M967,422a116,116,0,1,1-82,34,115.24,115.24,0,0,1,82-34m0-10a126,126,0,1,0,126,126A126,126,0,0,0,967,412Z" transform="translate(-715 -412)"/>
    <circle class="b" cx="252.5" cy="126.5" r="116.5"/>
    <path d="M1010.33,537.92q-4.49-5.82-13.55-8,11.54-5.9,10.14-20a19.8,19.8,0,0,0-2.82-8.86,17.7,17.7,0,0,0-6.4-6,34.87,34.87,0,0,0-8.75-3.49,68.93,68.93,0,0,0-10.84-1.74V470.3H966.18v19q-3.1,0-9.45.15V470.3H944.8v19.52c-1.7.05-4.21.08-7.51.08l-16.42-.08v12.7h8.6q5.88,0,6.89,5.27V530a8,8,0,0,1,1.24.08h-1.24v31.13c-.41,2.64-1.91,3.95-4.49,3.95h-8.6l-2.4,14.18h15.49c1,0,2.4,0,4.26,0l4.18,0v19.76h11.93V579.67q3.25.08,9.45.07v19.45h11.93V579.43a91.5,91.5,0,0,0,11.27-1.16,46,46,0,0,0,9.41-2.67,25.28,25.28,0,0,0,7.51-4.53,21.39,21.39,0,0,0,5-6.9,29.32,29.32,0,0,0,2.51-9.68Q1014.83,543.74,1010.33,537.92ZM957,503.37l3.06,0c1.68,0,3.08-.05,4.19-.08s2.6,0,4.49.2a41.16,41.16,0,0,1,4.76.62,26.25,26.25,0,0,1,4.26,1.28,11.55,11.55,0,0,1,3.72,2.16,10.78,10.78,0,0,1,2.36,3.26,10.06,10.06,0,0,1,1,4.53,10.68,10.68,0,0,1-.7,4,7.37,7.37,0,0,1-2.09,3,21,21,0,0,1-2.86,2.09,13,13,0,0,1-3.76,1.44c-1.52.36-2.85.64-4,.85a32.5,32.5,0,0,1-4.26.42l-3.87.16q-1.32,0-3.6,0l-2.68,0V503.37Zm32.57,52.75a11,11,0,0,1-1.89,3.1,10.81,10.81,0,0,1-3.06,2.32,27.53,27.53,0,0,1-3.68,1.63,30.15,30.15,0,0,1-4.3,1.08c-1.68.31-3.15.53-4.42.66s-2.77.23-4.53.31-3.12.12-4.1.12-2.22,0-3.72,0l-2.87,0V539.08l3.68-.08c2,0,3.71-.08,5-.08s3.07.08,5.34.24a45.19,45.19,0,0,1,5.74.69,37.71,37.71,0,0,1,5.07,1.44,14.51,14.51,0,0,1,4.45,2.36,11.59,11.59,0,0,1,2.87,3.56,10.41,10.41,0,0,1,1.16,5A10.07,10.07,0,0,1,989.53,556.12Z" transform="translate(-715 -412)"/>
  </g>
</svg>
