<svg xmlns="http://www.w3.org/2000/svg" width="1427" height="498" viewBox="0 0 1427 498">
  <defs>
    <style>
      .a {
        fill: #fff;
      }

      .b {
        fill: #ff0;
      }

      .c {
        fill: #fffce3;
      }

      .d {
        fill: #091029;
      }
    </style>
  </defs>
  <g>
    <path class="a" d="M921,284a116,116,0,1,1-82,34,115.24,115.24,0,0,1,82-34m0-10a126,126,0,1,0,126,126A126,126,0,0,0,921,274Z" transform="translate(-208 -274)"/>
    <circle class="b" cx="713.5" cy="126.5" r="116.5"/>
    <path d="M964.33,399.92q-4.49-5.82-13.55-8,11.54-5.9,10.14-20a19.8,19.8,0,0,0-2.82-8.86,17.7,17.7,0,0,0-6.4-6,34.87,34.87,0,0,0-8.75-3.49,68.93,68.93,0,0,0-10.84-1.74V332.3H920.18v19q-3.1,0-9.45.15V332.3H898.8v19.52c-1.7.05-4.21.08-7.51.08l-16.42-.08v12.7h8.6q5.88,0,6.89,5.27V392a8,8,0,0,1,1.24.08h-1.24v31.13c-.41,2.64-1.91,3.95-4.49,3.95h-8.6l-2.4,14.18h15.49c1,0,2.4,0,4.26,0l4.18,0v19.76h11.93V441.67q3.25.07,9.45.07v19.45h11.93V441.43a91.5,91.5,0,0,0,11.27-1.16,46,46,0,0,0,9.41-2.67,25.28,25.28,0,0,0,7.51-4.53,21.39,21.39,0,0,0,5-6.9,29.32,29.32,0,0,0,2.51-9.68Q968.83,405.74,964.33,399.92ZM911,365.37l3.06,0c1.68,0,3.08-.05,4.19-.08s2.6,0,4.49.2a41.16,41.16,0,0,1,4.76.62,26.25,26.25,0,0,1,4.26,1.28,11.55,11.55,0,0,1,3.72,2.16,10.78,10.78,0,0,1,2.36,3.26,10.06,10.06,0,0,1,1,4.53,10.68,10.68,0,0,1-.7,3.95,7.37,7.37,0,0,1-2.09,3,21,21,0,0,1-2.86,2.09,13,13,0,0,1-3.76,1.44c-1.52.36-2.85.64-4,.85a32.5,32.5,0,0,1-4.26.42l-3.87.16q-1.32,0-3.6,0l-2.68,0V365.37Zm32.57,52.75a11,11,0,0,1-1.89,3.1,10.81,10.81,0,0,1-3.06,2.32,27.53,27.53,0,0,1-3.68,1.63,30.15,30.15,0,0,1-4.3,1.08c-1.68.31-3.15.53-4.42.66s-2.77.23-4.53.31-3.12.12-4.1.12-2.22,0-3.72,0l-2.87,0V401.08l3.68-.08c2-.05,3.71-.08,5-.08s3.07.08,5.34.24a45.19,45.19,0,0,1,5.74.69,37.71,37.71,0,0,1,5.07,1.44,14.51,14.51,0,0,1,4.45,2.36,11.59,11.59,0,0,1,2.87,3.56,10.41,10.41,0,0,1,1.16,5A10.07,10.07,0,0,1,943.53,418.12Z" transform="translate(-208 -274)"/>
  </g>
  <g>
    <path class="c" d="M586.6,623c5.28-5.91,40.22-25.16,98.56-43.79,53-16.93,137-37.13,235.84-37.19h.47c99,0,183.12,20.2,236.22,37.14,58.43,18.64,93.42,37.91,98.71,43.84h-.29c-4.87,0-17-2.77-33.9-6.6C1170.3,604.57,1062.27,580,921.53,580H921c-140.46.06-248.33,24.59-300.17,36.38-16.87,3.83-29.06,6.6-33.94,6.6Z" transform="translate(-208 -274)"/>
    <path class="a" d="M921.47,544c97.56,0,180.59,19.7,233.06,36.23,50,15.77,82.38,31.81,95,40-6.19-1.08-15.43-3.18-26.81-5.77-52-11.82-160.16-36.43-301.14-36.43H921c-140.69.06-248.7,24.62-300.61,36.43-11.42,2.59-20.67,4.69-26.88,5.77,12.56-8.14,44.84-24.16,94.82-39.92C740.71,563.77,823.61,544.06,921,544h.47m0-4H921c-189.41.12-339.4,74.72-337,84,.17.67,1.15,1,2.89,1,20.49,0,147.37-42.9,334.11-43h.53c187,0,314.1,43,334.58,43,1.74,0,2.72-.31,2.89-1,2.4-9.28-147.79-84-337.53-84Z" transform="translate(-208 -274)"/>
  </g>
  <g>
    <g>
      <rect class="c" x="2" y="238" width="318" height="249" rx="38.88"/>
      <path class="a" d="M489.12,514A36.93,36.93,0,0,1,526,550.88V722.12A36.93,36.93,0,0,1,489.12,759H248.88A36.93,36.93,0,0,1,212,722.12V550.88A36.93,36.93,0,0,1,248.88,514H489.12m0-4H248.88A40.88,40.88,0,0,0,208,550.88V722.12A40.88,40.88,0,0,0,248.88,763H489.12A40.88,40.88,0,0,0,530,722.12V550.88A40.88,40.88,0,0,0,489.12,510Z" transform="translate(-208 -274)"/>
    </g>
    <g>
      <rect class="d" x="34.5" y="296.5" width="254" height="10"/>
      <path class="b" d="M496,571v9H243v-9H496m1-1H242v11H497V570Z" transform="translate(-208 -274)"/>
    </g>
    <g>
      <rect class="d" x="34.5" y="328.5" width="254" height="10"/>
      <path class="b" d="M496,603v9H243v-9H496m1-1H242v11H497V602Z" transform="translate(-208 -274)"/>
    </g>
    <g>
      <rect class="d" x="34.5" y="360.5" width="254" height="10"/>
      <path class="b" d="M496,635v9H243v-9H496m1-1H242v11H497V634Z" transform="translate(-208 -274)"/>
    </g>
    <g>
      <rect class="c" x="1107" y="247" width="318" height="249" rx="38.88"/>
      <path class="a" d="M1594.12,523A36.93,36.93,0,0,1,1631,559.88V731.12A36.93,36.93,0,0,1,1594.12,768H1353.88A36.93,36.93,0,0,1,1317,731.12V559.88A36.93,36.93,0,0,1,1353.88,523h240.24m0-4H1353.88A40.88,40.88,0,0,0,1313,559.88V731.12A40.88,40.88,0,0,0,1353.88,772h240.24A40.88,40.88,0,0,0,1635,731.12V559.88A40.88,40.88,0,0,0,1594.12,519Z" transform="translate(-208 -274)"/>
    </g>
    <g>
      <rect class="d" x="1139.5" y="305.5" width="254" height="10"/>
      <path class="b" d="M1601,580v9H1348v-9h253m1-1H1347v11h255V579Z" transform="translate(-208 -274)"/>
    </g>
    <g>
      <rect class="d" x="1139.5" y="337.5" width="254" height="10"/>
      <path class="b" d="M1601,612v9H1348v-9h253m1-1H1347v11h255V611Z" transform="translate(-208 -274)"/>
    </g>
    <g>
      <rect class="d" x="1139.5" y="369.5" width="254" height="10"/>
      <path class="b" d="M1601,644v9H1348v-9h253m1-1H1347v11h255V643Z" transform="translate(-208 -274)"/>
    </g>
  </g>
</svg>
